<svg id="Capa_1" enable-background="new 0 0 512 512" height="512" viewBox="0 0 512 512" width="512" xmlns="http://www.w3.org/2000/svg"><g><path d="m467.966 381.852c-9.808 62.683-58.939 111.803-121.611 121.622-72.088 11.293-144.176 11.293-216.274 0-62.673-9.818-111.793-58.939-121.611-121.622-11.293-72.088-11.293-144.176 0-216.264 9.818-62.672 58.939-111.803 121.611-121.611 46.945-7.353 93.89-9.921 140.835-7.694-7.786 9.787-12.355 22.111-12.355 35.24 0 2.496.165 5.012.505 7.549 1.733 13.025 7.755 24.442 16.46 32.991 8.704 8.539 20.09 14.232 32.538 15.82-7.879 10.148-11.881 22.441-11.881 34.776 0 13.428 4.744 26.907 14.376 37.725 11.21 12.572 26.752 18.976 42.366 18.976 10.22 0 20.461-2.743 29.547-8.302.309 13.458 5.394 26.04 13.85 35.807 8.457 9.766 20.286 16.717 34.043 18.883 2.991.474 5.961.701 8.89.701 13.83 0 26.814-5.074 36.859-13.685 1.309 43.026-1.403 86.062-8.148 129.088z" fill="#c6865c"/><path d="m127.41 503.03c-61.394-10.777-109.267-59.393-118.94-121.178-11.293-72.088-11.293-144.176 0-216.264 9.673-61.775 57.546-110.401 118.94-121.168-32.96 25.411-56.041 62.909-62.796 106.038-12.881 82.174-12.881 164.348 0 246.522 6.755 43.141 29.835 80.639 62.796 106.05z" fill="#b16e3d"/><g fill="#ffe07d"><path d="m426.631 87.142-1.715-1.715c-6.05-6.05-6.382-15.751-.76-22.2l17.291-19.838c6.194-7.106 17.11-7.48 23.775-.814l4.262 4.262c6.665 6.665 6.291 17.581-.814 23.775l-19.838 17.291c-6.451 5.62-16.152 5.288-22.201-.761z"/><path d="m369.346 58.508-2.343-.628c-8.264-2.214-13.402-10.449-11.759-18.845l5.056-25.826c1.811-9.251 11.078-15.032 20.182-12.593l5.822 1.56c9.105 2.44 14.239 12.08 11.182 20.997l-8.535 24.894c-2.774 8.093-11.341 12.656-19.605 10.441z"/><path d="m454.176 145.054-.628-2.343c-2.214-8.264 2.348-16.831 10.441-19.606l24.894-8.535c8.917-3.057 18.557 2.077 20.997 11.182l1.56 5.822c2.44 9.105-3.342 18.372-12.593 20.182l-25.826 5.056c-8.395 1.645-16.63-3.494-18.845-11.758z"/></g><circle cx="118.768" cy="209.611" fill="#664545" r="46.051"/><path d="m129.892 254.308c-3.558.887-7.291 1.361-11.128 1.361-25.432 0-46.048-20.626-46.048-46.058s20.616-46.048 46.048-46.048c3.836 0 7.57.474 11.128 1.361-20.059 4.971-34.92 23.091-34.92 44.686 0 21.596 14.861 39.727 34.92 44.698z" fill="#523838"/><circle cx="117.367" cy="336.764" fill="#664545" r="24.042"/><path d="m124.82 359.617c-2.351.773-4.857 1.186-7.456 1.186-13.283 0-24.04-10.757-24.04-24.04s10.756-24.04 24.04-24.04c2.599 0 5.105.413 7.456 1.186-9.632 3.125-16.594 12.169-16.594 22.854.001 10.685 6.962 19.729 16.594 22.854z" fill="#523838"/><circle cx="230.978" cy="421.145" fill="#664545" r="16.804"/><path d="m236.811 436.913c-1.815.67-3.775 1.042-5.827 1.042-9.282 0-16.81-7.529-16.81-16.81 0-9.271 7.528-16.8 16.81-16.8 2.052 0 4.012.371 5.827 1.042-6.415 2.362-10.983 8.529-10.983 15.758 0 7.239 4.569 13.406 10.983 15.768z" fill="#523838"/><circle cx="247.782" cy="231.271" fill="#664545" r="16.804"/><path d="m253.615 247.04c-1.815.67-3.775 1.042-5.827 1.042-9.282 0-16.81-7.528-16.81-16.81 0-9.271 7.528-16.8 16.81-16.8 2.052 0 4.012.371 5.827 1.042-6.415 2.362-10.983 8.529-10.983 15.758 0 7.239 4.568 13.406 10.983 15.768z" fill="#523838"/><circle cx="353.339" cy="342.579" fill="#664545" r="29.858"/><path d="m361.732 371.229c-2.661.784-5.476 1.207-8.395 1.207-16.491 0-29.856-13.366-29.856-29.856s13.366-29.856 29.856-29.856c2.919 0 5.734.423 8.395 1.207-12.396 3.62-21.451 15.078-21.451 28.65 0 13.57 9.054 25.028 21.451 28.648z" fill="#523838"/><g fill="#c6865c"><path d="m338.858 145.611 12.928-14.543c3.445-3.875 9.761-2.782 11.704 2.024l8.772 21.7c2.231 5.518-3.017 11.122-8.669 9.257l-21.7-7.157c-4.775-1.575-6.375-7.524-3.035-11.281z"/><path d="m426.622 177.144 20.542 10.309c5.473 2.747 6.156 10.287 1.265 13.973l-22.081 16.638c-5.615 4.231-13.612-.045-13.211-7.065l1.539-26.947c.339-5.929 6.638-9.572 11.946-6.908z"/></g></g></svg>